HIERARCHY
ROOT RootJoint
{
    OFFSET   0.000000   0.000000   0.000000
    CHANNELS 6 Xposition Yposition Zposition Xrotation Yrotation Zrotation
    JOINT pelvis_lowerback
    {
        OFFSET   0.000000   0.093605   0.000000
        CHANNELS 3 Xrotation Yrotation Zrotation
        JOINT lowerback_torso
        {
            OFFSET   0.000000   0.100000   0.000000
            CHANNELS 3 Xrotation Yrotation Zrotation
            JOINT torso_head
            {
                OFFSET   0.000000   0.282350   0.000000
                CHANNELS 3 Xrotation Yrotation Zrotation
                End Site
                {
                    OFFSET   0.000000   0.192650   0.000000
                }
            }
            JOINT rTorso_Clavicle
            {
                OFFSET  -0.001000   0.157500   0.000000
                CHANNELS 3 Xrotation Yrotation Zrotation
                JOINT rShoulder
                {
                    OFFSET  -0.117647   0.000000   0.000000
                    CHANNELS 3 Xrotation Yrotation Zrotation
                    JOINT rElbow
                    {
                        OFFSET  -0.245000   0.000000   0.000000
                        CHANNELS 3 Xrotation Yrotation Zrotation
                        JOINT rWrist
                        {
                            OFFSET  -0.240000   0.000000   0.000000
                            CHANNELS 3 Xrotation Yrotation Zrotation
                            End Site
                            {
                                OFFSET  -0.116353  -0.002500   0.000000
                            }
                        }
                    }
                }
            }
            JOINT lTorso_Clavicle
            {
                OFFSET   0.001000   0.157500   0.000000
                CHANNELS 3 Xrotation Yrotation Zrotation
                JOINT lShoulder
                {
                    OFFSET   0.117647   0.000000   0.000000
                    CHANNELS 3 Xrotation Yrotation Zrotation
                    JOINT lElbow
                    {
                        OFFSET   0.245000   0.000000   0.000000
                        CHANNELS 3 Xrotation Yrotation Zrotation
                        JOINT lWrist
                        {
                            OFFSET   0.240000   0.000000   0.000000
                            CHANNELS 3 Xrotation Yrotation Zrotation
                            End Site
                            {
                                OFFSET   0.116353  -0.002500   0.000000
                            }
                        }
                    }
                }
            }
        }
    }
    JOINT rHip
    {
        OFFSET  -0.100000  -0.051395   0.000000
        CHANNELS 3 Xrotation Yrotation Zrotation
        JOINT rKnee
        {
            OFFSET   0.000000  -0.410000   0.000000
            CHANNELS 3 Xrotation Yrotation Zrotation
            JOINT rAnkle
            {
                OFFSET   0.000000  -0.390000   0.000000
                CHANNELS 3 Xrotation Yrotation Zrotation
                JOINT rToeJoint
                {
                    OFFSET   0.000000  -0.050000   0.130000
                    CHANNELS 3 Xrotation Yrotation Zrotation
                    End Site
                    {
                        OFFSET  -0.010000   0.002000   0.060000
                    }
                }
            }
        }
    }
    JOINT lHip
    {
        OFFSET   0.100000  -0.051395   0.000000
        CHANNELS 3 Xrotation Yrotation Zrotation
        JOINT lKnee
        {
            OFFSET   0.000000  -0.410000   0.000000
            CHANNELS 3 Xrotation Yrotation Zrotation
            JOINT lAnkle
            {
                OFFSET   0.000000  -0.390000   0.000000
                CHANNELS 3 Xrotation Yrotation Zrotation
                JOINT lToeJoint
                {
                    OFFSET   0.000000  -0.050000   0.130000
                    CHANNELS 3 Xrotation Yrotation Zrotation
                    End Site
                    {
                        OFFSET   0.010000   0.002000   0.060000
                    }
                }
            }
        }
    }
}
MOTION
Frames: 15
Frame Time:   0.008333
 -2.668433   0.893736   3.637411  -5.380958  -5.557035  -4.560917  -2.347559  -3.111413  -4.977297   2.110629  -5.460023   0.771308   2.914775  -5.667998   4.435905  -2.698723  -1.866888  -2.662023 -29.131301   1.250750   4.458950   0.000099  40.543705   0.000407  -3.434735   4.191144  -3.620474   3.073384  -9.695277   5.905254   6.280243 -41.817990 -16.385700 179.988284 -83.379098 179.987278  -0.048876 -10.163764  -7.887921  -9.093182  -3.993319  -4.913529   7.218176  -0.000473   0.000415   3.486162  -7.053700   9.177822   0.560167   0.000588   0.000373  -5.604890   1.979391   4.104589  32.988653   0.000387  -0.000313 -23.415429  -0.496581   7.155693   1.231701  -0.000180  -0.000157
 -2.669144   0.894189   3.637721  -5.386451  -5.573990  -4.577704  -2.411610  -3.193868  -4.968744   2.121423  -5.429121   0.753137   2.848540  -5.670447   4.453486  -2.721941  -1.885420  -2.671228 -28.951076   1.282036   4.402973   0.000103  40.451255   0.000441  -3.384293   4.180416  -3.646308   3.040269  -9.657766   5.815357   6.263681 -41.765837 -16.251312 179.985616 -83.835185 179.984222  -0.033764 -10.149717  -7.833668  -8.919616  -3.973373  -4.828531   6.988883  -0.000277   0.000278   3.284902  -7.061795   9.110158   0.564589   0.000470   0.000301  -5.465859   2.030615   4.187233  32.762149   0.000398  -0.000366 -23.349297  -0.470849   7.049558   1.345239  -0.000102  -0.000062
 -2.669982   0.894528   3.638141  -5.425189  -5.570711  -4.599878  -2.465286  -3.279984  -4.974513   2.145903  -5.403605   0.736138   2.790722  -5.673081   4.470850  -2.742118  -1.901103  -2.678022 -28.781579   1.313118   4.353103   0.000115  40.365594   0.000439  -3.335130   4.167126  -3.658995   3.002626  -9.623377   5.737901   6.247481 -41.704798 -16.116550 179.982414 -84.281587 179.980666  -0.018678 -10.138433  -7.772121  -8.765731  -3.970455  -4.745564   6.874841  -0.000168   0.000200   3.146866  -7.075234   9.074853   0.502419   0.000395   0.000223  -5.309180   2.078693   4.283789  32.581450   0.000394  -0.000416 -23.284359  -0.445994   6.949420   1.441006  -0.000059   0.000015
 -2.670923   0.894817   3.638676  -5.474759  -5.549498  -4.630734  -2.524015  -3.363545  -4.982202   2.168172  -5.382904   0.718956   2.737724  -5.675826   4.486485  -2.760511  -1.918841  -2.680643 -28.622833   1.339971   4.307466   0.000136  40.285591   0.000403  -3.287595   4.155730  -3.666865   2.968513  -9.590089   5.663585   6.233168 -41.645822 -15.991033 179.978842 -84.701034 179.976851  -0.004178 -10.129493  -7.713096  -8.617299  -3.970877  -4.653208   6.812541  -0.000102   0.000140   3.040491  -7.087541   9.049556   0.449204   0.000334   0.000162  -5.145702   2.118631   4.395903  32.422918   0.000386  -0.000459 -23.220851  -0.423358   6.857369   1.529830  -0.000038   0.000077
 -2.671940   0.895082   3.639310  -5.525645  -5.514005  -4.666661  -2.590377  -3.442683  -4.991167   2.182698  -5.365830   0.701760   2.687350  -5.678515   4.500684  -2.777644  -1.938599  -2.680225 -28.474436   1.362474   4.265342   0.000161  40.210403   0.000346  -3.242125   4.143742  -3.674154   2.938442  -9.557955   5.591694   6.220474 -41.590708 -15.875492 179.975109 -85.092551 179.972969   0.009551 -10.122430  -7.657863  -8.473512  -3.972715  -4.553909   6.779164  -0.000064   0.000098   2.954290  -7.098718   9.030555   0.402660   0.000285   0.000111  -4.980349   2.151023   4.518307  32.275020   0.000378  -0.000497 -23.160798  -0.402905   6.772700   1.612108  -0.000031   0.000125
 -2.673013   0.895333   3.640021  -5.573638  -5.466687  -4.704910  -2.663339  -3.517107  -5.001160   2.188620  -5.351635   0.684618   2.638907  -5.681116   4.513651  -2.793807  -1.959590  -2.678150 -28.335907   1.381468   4.226071   0.000184  40.139719   0.000280  -3.198786   4.130380  -3.682568   2.911359  -9.527190   5.522945   6.208761 -41.539399 -15.768901 179.971402 -85.457581 179.969186   0.022546 -10.116834  -7.605015  -8.335060  -3.975545  -4.450480   6.764235  -0.000043   0.000071   2.882663  -7.109030   9.016163   0.361187   0.000245   0.000071  -4.816141   2.177159   4.647065  32.132601   0.000370  -0.000531 -23.105056  -0.384435   6.694624   1.687981  -0.000032   0.000161
 -2.674125   0.895573   3.640792  -5.616783  -5.409119  -4.743701  -2.741007  -3.586975  -5.011822   2.186798  -5.339823   0.667649   2.592303  -5.683619   4.525545  -2.809181  -1.981107  -2.675497 -28.206723   1.397803   4.189125   0.000204  40.073372   0.000212  -3.157485   4.115986  -3.692746   2.886288  -9.497978   5.457942   6.197515 -41.491603 -15.670174 179.967866 -85.797855 179.965631   0.034884 -10.112377  -7.553112  -8.202567  -3.979112  -4.345047   6.762025  -0.000033   0.000055   2.822377  -7.118636   9.005349   0.323898   0.000211   0.000038  -4.655149   2.198150   4.779509  31.993348   0.000364  -0.000563 -23.053842  -0.367740   6.622481   1.757766  -0.000037   0.000188
 -2.675278   0.895762   3.641497  -5.659988  -5.374688  -4.790204  -2.792331  -3.657238  -5.024073   2.165942  -5.337316   0.651590   2.540246  -5.677135   4.556545  -2.800965  -1.964924  -2.679244 -28.013442   1.419396   4.185063   0.000156  39.949179   0.000287  -3.113529   4.130013  -3.779524   2.882389  -9.449838   5.400057   6.178562 -41.421294 -15.517118 179.959740 -86.279809 179.957145   0.047697 -10.108678  -7.491142  -8.083481  -4.012861  -4.224407   6.751011  -0.000019   0.000043   2.833421  -7.101487   8.925385   0.345511   0.000172   0.000035  -4.513910   2.232561   4.931622  31.890443   0.000352  -0.000550 -23.034834  -0.293677   6.485912   1.862399   0.000004   0.000285
 -2.676427   0.895930   3.642183  -5.698060  -5.354290  -4.838765  -2.837074  -3.720512  -5.035393   2.145796  -5.330269   0.640204   2.488254  -5.672105   4.585423  -2.788725  -1.944928  -2.672940 -27.829046   1.438678   4.190408   0.000091  39.830723   0.000351  -3.070671   4.125901  -3.840642   2.874187  -9.399717   5.350975   6.161702 -41.339323 -15.366548 179.951112 -86.750417 179.948272   0.060458 -10.105448  -7.417641  -7.976922  -4.046489  -4.101673   6.743619  -0.000010   0.000034   2.851700  -7.085378   8.853328   0.370906   0.000139   0.000030  -4.382986   2.267307   5.082729  31.796783   0.000339  -0.000520 -23.016496  -0.222539   6.356224   1.958342   0.000030   0.000337
 -2.677556   0.896087   3.642859  -5.730445  -5.342233  -4.887199  -2.877663  -3.776371  -5.044779   2.127466  -5.319512   0.633033   2.439389  -5.667687   4.611746  -2.775523  -1.925351  -2.659957 -27.655386   1.455076   4.200297   0.000025  39.719505   0.000397  -3.029944   4.115732  -3.886222   2.864776  -9.348849   5.307368   6.145780 -41.257409 -15.224056 179.942402 -87.193047 179.939461   0.072732 -10.102673  -7.340226  -7.880236  -4.079241  -3.980153   6.738242  -0.000005   0.000027   2.871970  -7.070886   8.788151   0.394632   0.000111   0.000024  -4.259688   2.297968   5.228832  31.707324   0.000328  -0.000482 -22.999407  -0.156388   6.235408   2.046548   0.000044   0.000356
 -2.678658   0.896235   3.643529  -5.756973  -5.334623  -4.934276  -2.914712  -3.826220  -5.051775   2.111077  -5.306702   0.629267   2.393845  -5.663617   4.635987  -2.762117  -1.906737  -2.643028 -27.492354   1.469141   4.212709  -0.000036  39.615248   0.000428  -2.991194   4.102752  -3.922430   2.855450  -9.298963   5.267436   6.130749 -41.178745 -15.090653 179.933425 -87.606764 179.930502   0.084463 -10.100333  -7.263158  -7.792178  -4.110727  -3.861609   6.734278  -0.000001   0.000022   2.893150  -7.057741   8.728743   0.416408   0.000088   0.000019  -4.143493   2.324769   5.369044  31.620342   0.000317  -0.000442 -22.983867  -0.094997   6.122905   2.127474   0.000051   0.000355
 -2.679728   0.896376   3.644193  -5.777674  -5.328786  -4.979290  -2.948372  -3.871410  -5.056282   2.096683  -5.293077   0.628254   2.351434  -5.659828   4.658497  -2.748869  -1.889118  -2.623898 -27.339557   1.481434   4.226503  -0.000090  39.517624   0.000446  -2.954266   4.088234  -3.952340   2.846704  -9.251106   5.230312   6.116615 -41.104360 -14.966248 179.923714 -87.992919 179.920893   0.095648 -10.098374  -7.188336  -7.711943  -4.140744  -3.747037   6.731503   0.000001   0.000018   2.914827  -7.045733   8.674383   0.436352   0.000070   0.000014  -4.034250   2.348394   5.503222  31.535060   0.000306  -0.000404 -22.969936  -0.037976   6.018035   2.201666   0.000053   0.000342
 -2.680766   0.896512   3.644852  -5.792679  -5.322922  -5.021853  -2.978695  -3.912928  -5.058379   2.084316  -5.279426   0.629495   2.311963  -5.656296   4.679508  -2.735977  -1.872470  -2.603672 -27.196503   1.492353   4.240969  -0.000135  39.426287   0.000454  -2.919032   4.072898  -3.977691   2.838696  -9.205816   5.195543   6.103341 -41.034573 -14.850431 179.912440 -88.353182 179.909780   0.106305 -10.096739  -7.116558  -7.638894  -4.169207  -3.636974   6.729770   0.000001   0.000014   2.936763  -7.034706   8.624528   0.454620   0.000054   0.000010  -3.931828   2.369392   5.631457  31.451053   0.000295  -0.000370 -22.957595   0.015033   5.920195   2.269668   0.000051   0.000323
 -2.681821   0.896737   3.645560  -5.820065  -5.337531  -5.054754  -2.978712  -3.931926  -5.058611   2.043915  -5.273978   0.622210   2.259188  -5.649416   4.705691  -2.745651  -1.832357  -2.577341 -27.034330   1.515610   4.265248  -0.000252  39.254973   0.000527  -2.880705   4.094371  -4.010558   2.825151  -9.188184   5.144435   6.057666 -40.971847 -14.760320 179.862288 -88.876048 179.859578   0.142082 -10.099803  -7.093868  -7.571386  -4.151369  -3.526793   6.783894  -0.000034   0.000019   2.803150  -6.961921   8.529126   0.430658   0.000040  -0.000012  -3.780242   2.404520   5.751219  31.302222   0.000335  -0.000367 -22.916906   0.140794   5.788590   2.401477   0.000094   0.000422
 -2.682826   0.896654   3.646025  -5.792382  -5.255931  -5.200495  -2.958725  -3.999611  -4.943947   1.996607  -5.307449   0.660465   2.201125  -5.644483   4.730780  -2.759160  -1.792459  -2.583730 -26.886727   1.541339   4.272290  -0.000372  39.088075   0.000633  -2.848021   4.073036  -4.061553   2.790779  -9.204510   5.108451   5.994965 -40.922275 -14.670160 179.756428 -89.380280 179.753582   0.176158 -10.101260  -7.012040  -7.569914  -4.146836  -3.302820   6.872892  -0.000084   0.000106   2.729939  -6.896767   8.466574   0.391842   0.000032  -0.000070  -3.647428   2.406279   5.969166  30.711538   0.000426  -0.000854 -23.017584   0.248128   5.646053   2.316347   0.000012   0.000156
